<?xml version="1.0" encoding="UTF-8" standalone="no"?>
<svg xmlns:dc="http://purl.org/dc/elements/1.1/"
   xmlns:cc="http://creativecommons.org/ns#"
   xmlns:rdf="http://www.w3.org/1999/02/22-rdf-syntax-ns#"
   xmlns:svg="http://www.w3.org/2000/svg"
   xmlns="http://www.w3.org/2000/svg"
   xmlns:sodipodi="http://sodipodi.sourceforge.net/DTD/sodipodi-0.dtd"
   xmlns:inkscape="http://www.inkscape.org/namespaces/inkscape" viewBox="0 0 24 24" version="1.1" id="svg15" sodipodi:docname="home.svg" inkscape:version="1.0.1 (3bc2e813f5, 2020-09-07)">
   <metadata id="metadata19">
      <rdf:RDF>
         <cc:Work rdf:about="">
            <dc:format>image/svg+xml</dc:format>
            <dc:type rdf:resource="http://purl.org/dc/dcmitype/StillImage" />
            <dc:title>home</dc:title>
         </cc:Work>
      </rdf:RDF>
   </metadata>
   <sodipodi:namedview pagecolor="#ffffff" bordercolor="#666666" borderopacity="1" objecttolerance="10" gridtolerance="10" guidetolerance="10" inkscape:pageopacity="0" inkscape:pageshadow="2" inkscape:window-width="2560" inkscape:window-height="1417" id="namedview17" showgrid="false" inkscape:zoom="32" inkscape:cx="11.463605" inkscape:cy="12.523418" inkscape:window-x="-8" inkscape:window-y="-8" inkscape:window-maximized="1" inkscape:current-layer="svg15" />
   <defs id="defs4">
      <style id="style2">.cls-1{fill:#fff;opacity:0;}.cls-2{fill:#231f20;}</style>
   </defs>
   <title id="title6">home</title>
   <g id="Layer_2" data-name="Layer 2">
      <g id="home">
         <g id="home-2" data-name="home">
            <rect class="cls-1" width="24" height="24" id="rect8" />
            <path class="cls-2" d="M20.42,10.18,12.71,2.3a1,1,0,0,0-1.42,0L3.58,10.19A2,2,0,0,0,3,11.62V20a2,2,0,0,0,1.89,2H19.11A2,2,0,0,0,21,20V11.62A2.07,2.07,0,0,0,20.42,10.18ZM10,20V14h4v6Zm9,0H16V13a1,1,0,0,0-1-1H9a1,1,0,0,0-1,1v7H5V11.58l7-7.15,7,7.19Z" id="path10" />
         </g>
      </g>
   </g>
   <path style="fill:#e0e0e0;fill-opacity:1;stroke-width:0.015625" d="M 5.0052576,15.791334 5.0056126,11.584302 8.4988314,8.0170561 C 10.420102,6.0550708 11.998051,4.4519457 12.005385,4.4545561 12.012719,4.4571665 13.586786,6.0694586 15.503312,8.0374273 L 18.987904,11.615552 18.988591,15.806959 18.989278,19.998365 H 17.49709 16.004903 V 16.438364 C 16.004903,12.946359 16.004314,12.876063 15.97409,12.757888 15.881824,12.397131 15.589938,12.105093 15.239278,12.022692 15.149977,12.001708 14.75845,11.998799 11.996467,11.998596 8.5035839,11.998339 8.7829975,11.989573 8.543965,12.106912 8.3117793,12.22089 8.1338018,12.426829 8.043296,12.68624 L 7.99709,12.818677 7.9929546,16.408521 7.9888191,19.998365 H 6.4968608 5.0049025 Z" id="path858" />
   <path style="fill:#e0e0e0;fill-opacity:1;stroke-width:0.015625" d="M 10.004903,17.006177 V 14.01399 H 11.99709 13.989278 V 17.006177 19.998365 H 11.99709 10.004903 Z" id="path860" />
</svg>
