<?xml version="1.0" encoding="UTF-8" standalone="no"?>
<svg xmlns:dc="http://purl.org/dc/elements/1.1/"
   xmlns:cc="http://creativecommons.org/ns#"
   xmlns:rdf="http://www.w3.org/1999/02/22-rdf-syntax-ns#"
   xmlns:svg="http://www.w3.org/2000/svg"
   xmlns="http://www.w3.org/2000/svg"
   xmlns:sodipodi="http://sodipodi.sourceforge.net/DTD/sodipodi-0.dtd"
   xmlns:inkscape="http://www.inkscape.org/namespaces/inkscape" viewBox="0 0 24 24" version="1.1" id="svg15" sodipodi:docname="itchio.svg" inkscape:version="1.0.1 (3bc2e813f5, 2020-09-07)">
   <metadata id="metadata19">
      <rdf:RDF>
         <cc:Work rdf:about="">
            <dc:format>image/svg+xml</dc:format>
            <dc:type rdf:resource="http://purl.org/dc/dcmitype/StillImage" />
            <dc:title>save</dc:title>
         </cc:Work>
      </rdf:RDF>
   </metadata>
   <sodipodi:namedview pagecolor="#ffffff" bordercolor="#666666" borderopacity="1" objecttolerance="10" gridtolerance="10" guidetolerance="10" inkscape:pageopacity="0" inkscape:pageshadow="2" inkscape:window-width="2560" inkscape:window-height="1417" id="namedview17" showgrid="false" inkscape:zoom="42" inkscape:cx="12" inkscape:cy="12" inkscape:window-x="-8" inkscape:window-y="-8" inkscape:window-maximized="1" inkscape:current-layer="svg15" />
   <defs id="defs4">
      <style id="style2">.cls-1{fill:#fff;opacity:0;}.cls-2{fill:#231f20;}</style>
   </defs>
   <title id="title6">save</title>
   <g id="Layer_2" data-name="Layer 2">
      <g id="save">
         <g id="save-2" data-name="save">
            <rect class="cls-1" width="24" height="24" id="rect8" />
            <path class="cls-2" d="M20.12,8.71,15.29,3.88A3,3,0,0,0,13.17,3H6A3,3,0,0,0,3,6V18a3,3,0,0,0,3,3H18a3,3,0,0,0,3-3V10.83A3,3,0,0,0,20.12,8.71ZM10,19V17h4v2Zm9-1a1,1,0,0,1-1,1H16V16a1,1,0,0,0-1-1H9a1,1,0,0,0-1,1v3H6a1,1,0,0,1-1-1V6A1,1,0,0,1,6,5H8v5a1,1,0,0,0,1,1h4a1,1,0,0,0,0-2H10V5h3.17a1.05,1.05,0,0,1,.71.29l4.83,4.83a1,1,0,0,1,.29.71Z" id="path10" />
         </g>
      </g>
   </g>
   <path style="fill:#e0e0e0;stroke-width:0.0238095;fill-opacity:1" d="M 5.8458718,18.973479 C 5.6487798,18.944773 5.4641537,18.848155 5.3079992,18.692001 5.1464921,18.530494 5.0562839,18.351817 5.0247438,18.130952 4.9920776,17.902202 4.9920776,6.0977975 5.0247438,5.8690476 5.0562839,5.648183 5.1464921,5.4695064 5.3079992,5.3079992 5.4695064,5.1464921 5.648183,5.0562839 5.8690476,5.0247438 5.9607143,5.0116535 6.4774959,5.000731 7.0174512,5.0004716 L 7.9991881,5 8.0055464,7.6374176 8.0119048,10.274835 8.0889262,10.431276 C 8.187625,10.631746 8.3697293,10.813656 8.5696562,10.911493 L 8.7261905,10.988095 H 11.000501 13.274811 L 13.431264,10.911074 C 13.631069,10.81271 13.81271,10.631069 13.911074,10.431264 13.984411,10.282295 13.988095,10.261664 13.988095,10 13.988095,9.7383357 13.984411,9.7177045 13.911074,9.5687364 13.812724,9.368959 13.631069,9.187294 13.431292,9.0889262 L 13.274867,9.0119048 11.637434,9.0053205 10,8.9987362 V 6.9993681 5 L 11.565476,5.0004716 C 12.476444,5.0007461 13.19954,5.0108576 13.295002,5.0246566 13.385229,5.037699 13.529872,5.0815542 13.61643,5.1221127 13.763795,5.1911631 13.933841,5.3559005 16.288762,7.7110229 18.607373,10.029833 18.809497,10.238273 18.87779,10.380952 18.91988,10.468888 18.962055,10.607681 18.975462,10.702381 19.007671,10.929895 19.007478,17.905313 18.975256,18.130952 18.943716,18.351817 18.853508,18.530494 18.692001,18.692001 18.530494,18.853508 18.351817,18.943716 18.130952,18.975256 18.039286,18.988346 17.522606,18.999269 16.982775,18.999528 L 16.001264,19 15.99468,17.362566 15.988095,15.725133 15.911074,15.568708 C 15.812706,15.368931 15.631041,15.187276 15.431264,15.088926 L 15.274811,15.011905 H 12.000501 8.7261905 L 8.5696562,15.088507 C 8.3697448,15.186336 8.1876274,15.368254 8.0889262,15.568708 L 8.0119048,15.725133 8.0053205,17.362566 7.9987362,19 6.9934157,18.997097 C 6.4404894,18.9955 5.9240947,18.984872 5.8458718,18.973479 Z" id="path844" />
   <path style="fill:#e0e0e0;fill-opacity:1;stroke-width:0.0238095" d="M 10,18 V 17 H 12 14 V 18 19 H 12 10 Z" id="path846" />
</svg>
