<?xml version="1.0" encoding="UTF-8" standalone="no"?>
<svg xmlns:dc="http://purl.org/dc/elements/1.1/"
   xmlns:cc="http://creativecommons.org/ns#"
   xmlns:rdf="http://www.w3.org/1999/02/22-rdf-syntax-ns#"
   xmlns:svg="http://www.w3.org/2000/svg"
   xmlns="http://www.w3.org/2000/svg"
   xmlns:sodipodi="http://sodipodi.sourceforge.net/DTD/sodipodi-0.dtd"
   xmlns:inkscape="http://www.inkscape.org/namespaces/inkscape" viewBox="0 0 24 24" version="1.1" id="svg15" sodipodi:docname="tumblr.svg" inkscape:version="1.0.1 (3bc2e813f5, 2020-09-07)">
   <metadata id="metadata19">
      <rdf:RDF>
         <cc:Work rdf:about="">
            <dc:format>image/svg+xml</dc:format>
            <dc:type rdf:resource="http://purl.org/dc/dcmitype/StillImage" />
            <dc:title>moon</dc:title>
         </cc:Work>
      </rdf:RDF>
   </metadata>
   <sodipodi:namedview pagecolor="#ffffff" bordercolor="#666666" borderopacity="1" objecttolerance="10" gridtolerance="10" guidetolerance="10" inkscape:pageopacity="0" inkscape:pageshadow="2" inkscape:window-width="2560" inkscape:window-height="1417" id="namedview17" showgrid="false" inkscape:zoom="42" inkscape:cx="12" inkscape:cy="12" inkscape:window-x="-8" inkscape:window-y="-8" inkscape:window-maximized="1" inkscape:current-layer="svg15" />
   <defs id="defs4">
      <style id="style2">.cls-1{fill:#fff;opacity:0;}.cls-2{fill:#231f20;}</style>
   </defs>
   <title id="title6">moon</title>
   <g id="Layer_2" data-name="Layer 2">
      <g id="moon">
         <g id="moon-2" data-name="moon">
            <rect class="cls-1" width="24" height="24" id="rect8" />
            <path class="cls-2" d="M12.3,22h-.1a10.31,10.31,0,0,1-7.34-3.15,10.46,10.46,0,0,1-.26-14,10.13,10.13,0,0,1,4-2.74,1,1,0,0,1,1.06.22,1,1,0,0,1,.24,1,8.4,8.4,0,0,0,1.94,8.81,8.47,8.47,0,0,0,8.83,1.94,1,1,0,0,1,1.27,1.29A10.16,10.16,0,0,1,19.6,19,10.28,10.28,0,0,1,12.3,22ZM7.46,4.92A7.93,7.93,0,0,0,6.09,6.14a8.44,8.44,0,0,0,.2,11.32A8.29,8.29,0,0,0,12.22,20h.08a8.34,8.34,0,0,0,6.78-3.49A10.37,10.37,0,0,1,7.46,4.92Z" id="path10" />
         </g>
      </g>
   </g>
   <path style="fill:#e0e0e0;stroke-width:0.0238095;fill-opacity:1" d="M 11.821429,19.974476 C 10.09141,19.890012 8.3879781,19.231466 7.0305367,18.122318 6.4845305,17.676183 6.0479348,17.21173 5.6118565,16.613118 4.7746926,15.463928 4.250216,14.103315 4.0676691,12.607143 4.0196997,12.213981 4.0269668,11.048006 4.0797633,10.666667 4.1385077,10.242367 4.1827911,10.010149 4.2765648,9.6346571 4.639009,8.1833474 5.3977482,6.8333737 6.4266821,5.8090982 6.7161714,5.5209194 7.2726205,5.0469105 7.4039224,4.9766398 7.4488467,4.952597 7.452776,4.955442 7.4426819,5.0047043 7.3852426,5.2850259 7.3529079,6.1837579 7.3813245,6.7101034 7.4777414,8.4959724 7.9684133,10.111042 8.86358,11.589017 10.597044,14.451072 13.551472,16.283957 16.892857,16.570265 17.431146,16.616389 18.568475,16.596039 18.96187,16.533245 L 19.054693,16.518429 18.99873,16.5985 C 18.702028,17.023018 17.973001,17.784246 17.511905,18.150998 15.886873,19.443535 13.911534,20.07652 11.821429,19.974476 Z" id="path844" />
</svg>
