<?xml version="1.0" encoding="UTF-8" standalone="no"?>
<svg xmlns:dc="http://purl.org/dc/elements/1.1/"
   xmlns:cc="http://creativecommons.org/ns#"
   xmlns:rdf="http://www.w3.org/1999/02/22-rdf-syntax-ns#"
   xmlns:svg="http://www.w3.org/2000/svg"
   xmlns="http://www.w3.org/2000/svg"
   xmlns:sodipodi="http://sodipodi.sourceforge.net/DTD/sodipodi-0.dtd"
   xmlns:inkscape="http://www.inkscape.org/namespaces/inkscape" viewBox="0 0 24 24" version="1.1" id="svg15" sodipodi:docname="twitter.svg" inkscape:version="1.0.1 (3bc2e813f5, 2020-09-07)">
   <metadata id="metadata19">
      <rdf:RDF>
         <cc:Work rdf:about="">
            <dc:format>image/svg+xml</dc:format>
            <dc:type rdf:resource="http://purl.org/dc/dcmitype/StillImage" />
            <dc:title>twitter</dc:title>
         </cc:Work>
      </rdf:RDF>
   </metadata>
   <sodipodi:namedview pagecolor="#ffffff" bordercolor="#666666" borderopacity="1" objecttolerance="10" gridtolerance="10" guidetolerance="10" inkscape:pageopacity="0" inkscape:pageshadow="2" inkscape:window-width="2560" inkscape:window-height="1417" id="namedview17" showgrid="false" inkscape:zoom="42" inkscape:cx="12" inkscape:cy="12" inkscape:window-x="-8" inkscape:window-y="-8" inkscape:window-maximized="1" inkscape:current-layer="svg15" />
   <defs id="defs4">
      <style id="style2">.cls-1{fill:#fff;opacity:0;}.cls-2{fill:#231f20;}</style>
   </defs>
   <title id="title6">twitter</title>
   <g id="Layer_2" data-name="Layer 2">
      <g id="twitter">
         <g id="twitter-2" data-name="twitter">
            <polyline class="cls-1" points="0 0 24 0 24 24 0 24" id="polyline8" />
            <path class="cls-2" d="M8.51,20H8.43a10.87,10.87,0,0,1-4.65-1.09A1.38,1.38,0,0,1,3,17.47a1.41,1.41,0,0,1,1.16-1.18,6.63,6.63,0,0,0,2.54-.89A9.49,9.49,0,0,1,3.19,6.33a1.41,1.41,0,0,1,1-1.15,1.35,1.35,0,0,1,1.43.41,7.09,7.09,0,0,0,4.88,2.75,4.5,4.5,0,0,1,1.41-3.1,4.47,4.47,0,0,1,6.37.19.7.7,0,0,0,.78.1A1.39,1.39,0,0,1,21,7.13a6.66,6.66,0,0,1-1.28,2.6A10.79,10.79,0,0,1,8.51,20Zm0-2h.08a8.79,8.79,0,0,0,9.09-8.59,1.32,1.32,0,0,1,.37-.85,5.19,5.19,0,0,0,.62-1,2.56,2.56,0,0,1-1.91-.85A2.45,2.45,0,0,0,15,6a2.5,2.5,0,0,0-1.79.69,2.53,2.53,0,0,0-.72,2.42l.26,1.14-1.17.08a8.3,8.3,0,0,1-6.54-2.4,7.12,7.12,0,0,0,3.73,6.46l.95.54-.63.9a5.62,5.62,0,0,1-2.68,1.92A8.34,8.34,0,0,0,8.5,18ZM19,6.65h0Z" id="path10" />
         </g>
      </g>
   </g>
   <path style="fill:#e0e0e0;stroke-width:0.0238095;fill-opacity:1" d="M 8.0357143,17.974725 C 7.5944736,17.954053 7.1783493,17.90266 6.7738095,17.818875 6.6166667,17.786329 6.4788858,17.757127 6.4676298,17.753981 6.4563738,17.750835 6.5420881,17.712382 6.658106,17.66853 7.0858925,17.506837 7.6234012,17.209468 7.9977331,16.9274 8.5318993,16.524894 8.8760893,16.152781 9.3894757,15.422749 9.7318648,14.935875 9.7360629,14.928366 9.683885,14.896164 9.6547721,14.878197 9.352381,14.705398 9.0119048,14.512167 8.0327188,13.956449 7.7271031,13.732003 7.1179207,13.121214 6.0002106,12.000555 5.3164277,10.610642 5.1080146,9.0357143 5.0665845,8.7226369 5.0303635,7.9761905 5.0566017,7.9761905 5.0656406,7.9761905 5.1650515,8.0628633 5.2775147,8.1687968 6.0674124,8.9128321 7.1058476,9.5339167 8.1785714,9.9039086 9.385654,10.320242 10.387185,10.426384 12.022637,10.3113 12.421397,10.28324 12.750708,10.257228 12.754441,10.253496 12.758173,10.249764 12.696688,9.9653614 12.617807,9.6214914 12.538926,9.2776212 12.463068,8.9087188 12.449234,8.8017079 12.360444,8.114895 12.622996,7.3316894 13.120203,6.8001734 13.655299,6.2281539 14.421868,5.9468368 15.236221,6.0236328 15.85118,6.0816253 16.30908,6.3007342 16.809524,6.7764722 16.947024,6.907184 17.126293,7.059432 17.2079,7.114801 17.563488,7.3560615 17.964465,7.5042111 18.392833,7.5526001 18.523799,7.5673941 18.634823,7.5824456 18.639553,7.5860479 18.67214,7.610865 18.23676,8.3087345 18.024801,8.5714286 17.753548,8.9076117 17.696161,9.0671983 17.665204,9.5714286 17.567335,11.165544 17.170896,12.479635 16.403161,13.754779 15.904269,14.583397 15.143114,15.454291 14.392857,16.054918 13.3089,16.922693 12.003488,17.53752 10.670509,17.808082 9.8145638,17.981818 9.122035,18.025619 8.0357143,17.974725 Z" id="path844" />
</svg>
